<svg id="Слой_1" data-name="Слой 1" xmlns="http://www.w3.org/2000/svg" viewBox="0 0 768.5 438.88"><defs><style>.cls-1{fill:#2563eb;}</style></defs><title>logo</title><path class="cls-1" d="M462.5,298.2c-.2.7-2,8.9-4,18.3s-7.2,33-11.5,52.5c-6.6,29.6-21.5,98-31.5,144.5-1.3,6-4.4,20.2-6.9,31.5s-6.6,29.9-9.1,41.5-4.8,21.8-5.1,22.7c-.5,1.7,1.6,1.8,34,1.8h34.5l.7-3.7c.3-2.1,4.2-19.8,8.5-39.3s8.9-40.9,10.3-47.5,5-23.3,8-37,8-36.5,11-50.5,6.7-30.5,8.1-36.5,6.5-29.9,11.5-53,9.3-43,9.6-44.3l.6-2.2H497.1C470.7,297,462.8,297.3,462.5,298.2Z" transform="translate(-127.5 -297)"/><path class="cls-1" d="M573.3,298.2C572.1,299.9,566,327,551,397c-3.2,14.5-6.6,30-12.9,58.5-2.2,9.9-8.5,38.7-14,64s-10.5,47.8-11.1,50-2.5,11.4-4.5,20.5-3.9,17.5-4.2,18.7l-.5,2.3h69.7l5.9-26.8c3.2-14.7,7.4-33.5,9.2-41.7s5.4-24.7,7.9-36.5,8.4-38.6,13-59.5,10.4-47.7,13-59.5,8-36.6,12.1-55.2,7.4-33.9,7.4-34.2-15.2-.6-33.9-.6C582.2,297,574,297.3,573.3,298.2Z" transform="translate(-127.5 -297)"/><path class="cls-1" d="M684.7,298.5c-.8.7-1.8,3.1-2.1,5.2-1.6,8.5-24.5,112.7-45.1,204.8-6.4,28.6-13,57.8-14.5,65s-4,18.1-5.4,24.4-2.6,11.8-2.6,12.3,15.4.8,34.3.8h34.2l18.4-83.3c10.1-45.7,20.3-91.8,22.7-102.2S730.2,400,732,392s3.8-17.2,4.5-20.5,3.1-13.4,5-22.5c7.4-33.8,10.6-48.5,11.1-50.3.5-1.6-1.5-1.7-33-1.7C691.7,297,685.9,297.2,684.7,298.5Z" transform="translate(-127.5 -297)"/><path class="cls-1" d="M201.2,374.8c-2.6.4-64.2,46.1-71.2,52.8l-2.5,2.4h21.8c18.4,0,21.7.2,21.7,1.5S152.8,515.8,146.5,543c-6.5,28.2-8.6,38.4-8.1,39.6a1.17,1.17,0,0,1-.4,1.6c-.9.3-6,22-6,25.3,0,1.4,9.3,1.5,91.3,1.3,91-.3,91.2-.3,99.2-2.6,39.1-10.9,66.6-43.4,66.6-78.7.1-19.1-7.8-32.5-24.4-41.6l-5-2.7,4.9-2.5c30.2-15.3,45.8-54.2,32.7-81.3-5.3-10.9-14.3-18.5-28-23.6-5.6-2.2-7.3-2.2-53-2.6l-47.2-.3-1,3.8c-1.3,4.9-2.5,10.3-6.6,29.8-1.8,8.8-3.6,17.2-4,18.7l-.7,2.7,32.9.3c30.9.3,33,.4,36.3,2.3a13.21,13.21,0,0,1,6.6,13.4c-1.1,8.3-6.1,14.3-16.1,19.1-2.4,1.2-9.9,1.6-35,2l-32,.5-4.7,21c-2.5,11.5-4.7,22-4.7,23.2L240,514h37c35.2,0,37.3.1,41,2,4.9,2.5,7,6.4,7,13,0,8.8-5.7,16.7-15.5,21.2-5,2.3-5.3,2.3-52.2,2.6-38.2.2-47.2,0-46.8-1,.4-1.2,4.3-19.1,14.9-67.3,1.9-8.8,6.4-29.3,10-45.5,8.2-37.3,12.3-56.5,13.1-61l.6-3.5H226.3C213.8,374.5,202.5,374.6,201.2,374.8Z" transform="translate(-127.5 -297)"/><path class="cls-1" d="M805.8,390.4c-12.7,17.5-34.6,48-44.1,61.6-3.3,4.7-6.6,8.9-7.3,9.3s-5.2.9-10,1.2-9,.7-9.4,1.2c-.9.9-4.5,15.7-8.5,34.3-1.4,6.9-2.9,13.3-3.1,14.2-.5,1.6.5,1.8,11.3,1.8h11.9l3.9,11.4c2.2,6.3,4.4,11.2,4.9,10.9s.6-.1.2.6,4.6,17.2,11.5,37.7L779.5,611h70.4l-2.8-8.3c-1.6-4.5-5.1-14.5-7.9-22.2s-9.9-27.5-15.7-44-12-33.7-13.7-38.3l-3.1-8.3,4.3-6.2c2.4-3.4,8-10.7,12.5-16.3s13.4-17,20-25.4,21.1-26.8,32.2-40.9S896,375.2,896,374.9s-17.7-.6-39.2-.6l-39.3-.1Z" transform="translate(-127.5 -297)"/><path class="cls-1" d="M151.6,655.7c-14.4,47-18.1,56.3-22.4,56.3a1.37,1.37,0,0,0-1.2,1.5c0,1.2,1.9,1.5,11.5,1.5,9.2,0,11.5-.3,11.5-1.4,0-.8-1.3-1.9-3-2.4-3.9-1.4-4.4-4.3-2.2-11.7l1.8-6,10.6-.3,10.5-.3,1.6,5.3c2.7,9.4,2.8,9.8.1,12.3-4.3,4-3.3,4.5,9.1,4.5,9.1,0,11.5-.3,11.5-1.4,0-.7-1.1-2.1-2.5-3a14.48,14.48,0,0,1-3.5-3.5c-.9-1.7-9.7-29.1-16.5-51.4l-2.6-8.7H154.2ZM162.7,672c2.5,7.9,3.7,13.3,3.1,13.6-1,.6-14.9.7-15.5.1-.1-.2,1.3-5.4,3.2-11.7s3.5-12.3,3.5-13.3C157,656.2,159,660.1,162.7,672Z" transform="translate(-127.5 -297)"/><path class="cls-1" d="M510,648.5a1.45,1.45,0,0,0,1.4,1.5c.8,0,2.4,1.2,3.6,2.7,2.1,2.6,2.1,3.5,1.8,28.9l-.3,26.3-2.7,2.8c-1.6,1.6-2.8,3.2-2.8,3.6,0,1.2,23.3.3,23.7-.8.1-.6-1-1.8-2.6-2.7a6.47,6.47,0,0,1-3.6-5.1c-.9-4.4-.2-6.4,3.3-10.2,4.4-4.8,16.7-19.7,18.6-22.8,1-1.5,2.1-2.7,2.5-2.7s.6,8.7.4,19.2l-.4,19.3L550,711c-1.7,1.4-3,2.8-3,3.2s5.2.8,11.5.8c12.3,0,13.4-.5,9.1-4.5-2.1-1.9-2.5-3.5-3.1-12.1-.4-5.4-.5-17.8-.2-27.4l.5-17.5,3.1-2.6a13,13,0,0,0,3.1-3.2c0-.4-5.4-.7-12-.7-12.4,0-14.3.7-9.1,3.4,3.3,1.7,4.5,5,2.9,8-.6,1.2-6.3,8.6-12.7,16.5l-11.6,14.4-.3-16.4c-.3-17.1.4-21.1,3.9-23,4.1-2.2,1.6-2.9-10.1-2.9C512,647,510,647.2,510,648.5Z" transform="translate(-127.5 -297)"/><path class="cls-1" d="M325.5,666.9c-9.3,1.8-13.5,5.5-14.3,12.7-.7,6.2,1.8,10.8,6.8,13l3.8,1.7-5,7.1c-2.8,3.9-5.9,8-6.9,9.2-3.2,3.5-2.4,4.4,3.9,4.4,6.9,0,7.1-.2,13.2-11,4.5-8.1,5.4-9,8.8-9,2.1,0,2.2.4,2.2,6.9,0,6.3-.2,7.2-2.6,9-1.4,1.1-2.3,2.5-1.9,3.1.7,1.2,21.5,1.4,21.5.2,0-.4-1.4-1.9-3-3.4l-3-2.7.2-17.8c.3-17.4.4-17.8,2.6-18.8,2-.9,3.1-3.5,1.5-3.5-5.8-.3-13.9-.9-18.3-1.3A42,42,0,0,0,325.5,666.9Zm11.8,5.8c.4.2.7,3.9.7,8.3,0,8.6-.3,9-6.5,9a9,9,0,0,1-6.4-2.9c-6.9-6.5-1.6-17,7.9-15.4A28,28,0,0,1,337.3,672.7Z" transform="translate(-127.5 -297)"/><path class="cls-1" d="M443.1,667.1c-11.6,2.3-18.1,12.9-16.8,27.4.6,6.7,3.1,12.8,6.4,15.7,5.7,5.2,18.8,6.7,26,2.9,5.3-2.6,8.7-6.9,7.2-8.7-.9-1.1-1.7-.9-4.6,1.3-5,3.8-12.6,4.3-17.3,1.1-9.8-6.6-8.6-29.4,1.7-34.4a11.83,11.83,0,0,1,5.8-1c3.1.8,8.2,5.2,9,7.6a3,3,0,0,0,2.6,2c1.6,0,1.9-.7,1.9-4.3,0-7.5-.7-8.5-5.9-9.2C449.6,666.3,447.4,666.2,443.1,667.1Z" transform="translate(-127.5 -297)"/><path class="cls-1" d="M728.1,667.1a20.39,20.39,0,0,0-14.2,10.7c-3.3,6.5-3.4,20.5-.1,26.9,4.1,7.9,13.4,12.2,23.2,10.8,9.5-1.4,14.9-6,17.5-14.8,4.6-15.4-1-29.6-13-33.3C736.2,665.9,734.6,665.8,728.1,667.1Zm10.3,6c3.8,3,5.3,6.5,6.1,14.6,1.3,13-3.6,23.3-11,23.3-3.6,0-7.7-3.7-9.5-8.5-1.5-4.1-1.6-18.2-.1-22.6a12.05,12.05,0,0,1,10.7-8.8A9.16,9.16,0,0,1,738.4,673.1Z" transform="translate(-127.5 -297)"/><path class="cls-1" d="M791.3,667.1c-3.7.7-8.3,3.5-8.3,4.9,0,2.3-1.8.7-2.4-2l-.6-3-7.2.6q-12.3,1-6.6,3.3a6.15,6.15,0,0,1,3.2,2.6c.3.9.6,14,.6,29v27.4l-3.2,2.2-3.2,2.3,2.4.7c3.3.9,20.5,1.1,21.3.2.4-.3-.9-2.1-2.8-3.9-3.4-3-3.5-3.4-3.5-10.2,0-7.4,1-9.3,3.7-7,2.6,2.1,13.1,1.7,17.8-.8,11.1-5.8,15-27.2,7-39.2C805.8,668.5,798.3,665.6,791.3,667.1Zm8.5,11.9c2.8,5.6,3,17.2.4,23.9-3.2,8.5-11.7,10.4-16.6,3.8-1.8-2.5-2.1-4.2-2.1-14,0-12.9,1.2-16.3,6.4-18.9C792.7,671.4,796.8,673.1,799.8,679Z" transform="translate(-127.5 -297)"/><path class="cls-1" d="M208,668.7c0,.7,1,1.7,2.1,2.4,2,1,2.1,1.6,1.6,9.3-.8,10-3.9,23.3-6.1,25.4-1.4,1.5-1.8,1.4-4.5-.6a18.14,18.14,0,0,0-3.6-2.2c-.3,0-.5,2.8-.5,6.1v6.2l5-.5c9.4-.9,12.6-6.5,17-29.8,1.11-5.88.33-11.52,3.6-13.1,1.21-.59,2.26-.32,3.9-.11,8,1,15.48-1.2,15.49-2,0-.54-3.78-1.28-18.1-2.25a48.47,48.47,0,0,0-7.89-.28C212.66,667.42,208,667.56,208,668.7Z" transform="translate(-127.5 -297)"/><path class="cls-1" d="M226.09,667.73c-1.23-.14-4.42-.51-4.67.27s2.3,2.52,4.52,3.46a13.22,13.22,0,0,1,2.4,1c1.83,1.27,2.2,3.73,2.38,5,1.52,11.08,1.48,14.9,1.48,14.9-.12,12.35-1.57,14.61-2.69,15.69s-2.12,2.08-3.2,3.1c-2.82,2.66-3.42,3.05-3.3,3.5.29,1.08,4.11.24,11.5.4,3.61.08,10.53.39,11.37-1.05a1.06,1.06,0,0,0,.13-.55,2.54,2.54,0,0,0-1.9-2.1c-3-.8-3.9-4.9-4-19.2-.2-16.8.2-19.2,4.1-21.4,1.7-1,2.8-2.1,2.4-2.4A143.52,143.52,0,0,1,226.09,667.73Z" transform="translate(-127.5 -297)"/><path class="cls-1" d="M256.3,668.4c-.4.5.3,1.5,1.3,2.2,4.4,3.1,4.4,2.9,4.4,20.5v17.1l-3,2.8a15.21,15.21,0,0,0-3,3.4c0,1.1,29.4.6,33.4-.5,11.4-3.1,14.3-19.2,4.7-25.6-2.9-2-4.7-2.3-12.3-2.3h-8.9l.3-6.8c.3-5.8.6-6.8,2.6-7.7s2.5-1.6,2-3.1C277.4,667.4,256.9,667.4,256.3,668.4Zm29.6,25c1.7,1.8,2.3,3.7,2.3,7.2.1,4-.3,5.1-2.7,7.1-2.2,1.9-3.6,2.3-7.4,2.1l-4.6-.3-.3-9.3-.3-9.2h5.4C282.7,691,284.1,691.4,285.9,693.4Z" transform="translate(-127.5 -297)"/><path class="cls-1" d="M368.5,667.8c-3.5.7-3.9,2-1.1,3.3a6.54,6.54,0,0,1,3.2,3.4c.3,1.2.4,9.5.2,18.4l-.3,16.3-2.8,2c-1.5,1.1-2.5,2.4-2.1,2.9.8,1.3,21.4,1.2,21.4-.1,0-.6-1.1-2.1-2.4-3.3-2.1-1.9-2.5-3.4-2.9-10.5l-.5-8.2H400v7c0,7.6-1.3,11.7-4.2,12.5a2.67,2.67,0,0,0-1.8,2.1c0,1.1,2.2,1.4,11.5,1.4,9.5,0,11.3-.2,10.9-1.4a9.51,9.51,0,0,0-3-3.1l-2.4-1.6.2-18.2c.3-17.9.3-18.2,2.6-19.2,1.2-.5,2.1-1.7,2-2.5-.3-1.1-2.3-1.4-10.2-1.5-5.4,0-10.3.3-10.8.6-1.3.8-.1,2.9,1.6,2.9,2,0,3.6,4.6,3.6,10v5H382l-.2-3.3c-.3-6.8.3-9.2,2.9-11.5,1.4-1.3,2.2-2.6,1.8-3C385.8,667.5,372,667.2,368.5,667.8Z" transform="translate(-127.5 -297)"/><path class="cls-1" d="M582.8,668.2c-1,.6-.6,1.3,1.5,2.9l2.7,2.1v13.1c0,18.8-.7,23.6-3.7,25-4.3,1.9-1.9,3.2,7,3.5,7.1.2,8.7,0,8.7-1.2a2.64,2.64,0,0,0-2.1-2.1,5.8,5.8,0,0,1-3-3.3c-1.1-2.8-1.1-20.1,0-25.4l.7-3.2,2.1,5.4c4.7,12,9.3,21.6,10.8,22.5,2.8,1.8,4.8-.9,10.4-14.4l5.6-13.2.3,14.3.3,14.3-3.1,2.6a13.93,13.93,0,0,0-3,3.2c0,.4,5.2.7,11.5.7s11.5-.3,11.5-.8-1.3-1.8-3-3.2l-3-2.5-.1-17c0-9.4.2-17.7.6-18.7a4.21,4.21,0,0,1,2.7-2.1c1.1-.3,1.8-1.2,1.6-1.9-.6-1.6-15.3-1.9-17.3-.3-.7.5-3.5,6.2-6,12.5s-4.9,11.9-5.2,12.3-3.1-5.1-6.2-12.4l-5.6-13.3-7.7-.1C587.6,667.4,583.5,667.7,582.8,668.2Z" transform="translate(-127.5 -297)"/><path class="cls-1" d="M654.3,667.8c-2.5.4-3.2,3.2-.8,3.2,2.7,0,3.4,3.7,3.5,18.1.2,22.4.4,20.7-3,22.4-1.6.9-3,2-3,2.5,0,1.1,21.3,1.4,22.3.3.4-.4-.5-2-2-3.5-2.8-2.9-2.8-3-3.1-19.1-.1-8.9.2-16.8.7-17.6,1-1.6,10.7-2.3,13.4-.9,1.5.8,1.7,2.7,1.7,18.2,0,17.1,0,17.3-2.5,19.6-1.4,1.3-2.5,2.7-2.5,3.2s5,.8,11,.8c11.9,0,13.7-1,8-4.2l-3-1.7V692c0-17.2.7-21,3.6-21,.9,0,1.4-.7,1.2-1.7-.3-1.6-2.3-1.8-21.8-1.8C666.2,667.4,655.5,667.6,654.3,667.8Z" transform="translate(-127.5 -297)"/><path class="cls-1" d="M822.4,667.9c-.7.8-.4,14.1.4,14,2.4-.2,4.4-1.8,6.1-4.9s2.4-3.6,6.5-4l4.6-.6v17.2c0,9.5-.3,18-.6,18.9a9.56,9.56,0,0,1-3.6,3.1c-5,2.6-2,3.5,10.3,3.2l11.4-.3-3.2-3-3.1-3-.4-17.8-.3-17.7h4c4.8,0,5.7.6,7.9,4.7.9,1.8,2,3.3,2.4,3.4a20.12,20.12,0,0,1,2.5.4c1.6.3,1.8-.3,1.6-5.3-.4-9.7,1.8-8.9-23.6-8.8C833,667.5,822.6,667.7,822.4,667.9Z" transform="translate(-127.5 -297)"/><path class="cls-1" d="M474.4,685.4a11.4,11.4,0,0,0-.2,4.3l.3,2.8,10.4.3c11.6.3,13.1-.3,13.1-5.4V684H486.5C477.4,684,474.8,684.3,474.4,685.4Z" transform="translate(-127.5 -297)"/></svg>